# xmcd
#
# Track frame offsets: 
#        150
#        23081
#        43459
#        64923
#        81743
#        97903
#        122434
#        145553
#        161699
#        183879
#        203901
#        248508
#
# Disc length: 3969 seconds
#
# Revision: 0
# Processed by: cddbd v1.5.2PL0 Copyright (c) Steve Scherf et al.
# Submitted via: ExactAudioCopy v1.0b1
#
DISCID=9e0f7f0c
DTITLE=Savoy Brown feat Kim Simmonds - Steel
DYEAR=2008
DGENRE=Blues
TTITLE0=Monday Morning Blues
TTITLE1=Long As I've Got You
TTITLE2=I Don't Remember You
TTITLE3=You Don't Do A Thing For Me
TTITLE4=Fly Away
TTITLE5=Crying Forever
TTITLE6=Daybreak
TTITLE7=Echo Of A Sigh
TTITLE8=I'll Keep On Singing The Blues
TTITLE9=Keeping The Dream Alive
TTITLE10=Blues Like Midnight
TTITLE11=Hellbound Train
EXTD=
EXTT0=
EXTT1=
EXTT2=
EXTT3=
EXTT4=
EXTT5=
EXTT6=
EXTT7=
EXTT8=
EXTT9=
EXTT10=
EXTT11=
PLAYORDER=
